<mxfile host="app.diagrams.net" modified="2024-04-07T15:04:04.559Z" agent="Mozilla/5.0 (Windows NT 10.0; Win64; x64) AppleWebKit/537.36 (KHTML, like Gecko) Chrome/123.0.0.0 Safari/537.36" etag="Jul7e1WN9120jQ8somUN" version="24.2.2" type="github">
  <diagram name="Page-1" id="74e2e168-ea6b-b213-b513-2b3c1d86103e">
    <mxGraphModel dx="1151" dy="1675" grid="1" gridSize="10" guides="1" tooltips="1" connect="1" arrows="1" fold="1" page="1" pageScale="1" pageWidth="1100" pageHeight="850" background="#FFFFFF" math="0" shadow="0">
      <root>
        <mxCell id="0" />
        <mxCell id="1" parent="0" />
        <mxCell id="77e6c97f196da883-1" value="&lt;font style=&quot;font-size: 18px;&quot;&gt;discord&lt;/font&gt;" style="swimlane;html=1;childLayout=stackLayout;startSize=20;rounded=0;shadow=0;labelBackgroundColor=none;strokeWidth=1;fontFamily=Verdana;fontSize=8;align=center;strokeColor=#D1EBFF;dashed=1;" parent="1" vertex="1">
          <mxGeometry x="65" width="970" height="780" as="geometry" />
        </mxCell>
        <mxCell id="77e6c97f196da883-40" style="edgeStyle=orthogonalEdgeStyle;rounded=1;html=1;labelBackgroundColor=none;startArrow=none;startFill=0;startSize=5;endArrow=classicThin;endFill=1;endSize=5;jettySize=auto;orthogonalLoop=1;strokeWidth=1;fontFamily=Verdana;fontSize=8" parent="77e6c97f196da883-1" edge="1">
          <mxGeometry relative="1" as="geometry">
            <mxPoint x="770" y="690" as="sourcePoint" />
          </mxGeometry>
        </mxCell>
        <mxCell id="107ba76e4e335f99-3" style="edgeStyle=orthogonalEdgeStyle;rounded=1;html=1;labelBackgroundColor=none;startArrow=none;startFill=0;startSize=5;endArrow=classicThin;endFill=1;endSize=5;jettySize=auto;orthogonalLoop=1;strokeColor=#000000;strokeWidth=1;fontFamily=Verdana;fontSize=8;fontColor=#000000;" parent="77e6c97f196da883-1" edge="1">
          <mxGeometry relative="1" as="geometry">
            <mxPoint x="670" y="610" as="sourcePoint" />
          </mxGeometry>
        </mxCell>
        <mxCell id="TCiXfk5xuBNNh0pUbAXc-102" style="edgeStyle=orthogonalEdgeStyle;rounded=0;orthogonalLoop=1;jettySize=auto;html=1;exitX=1;exitY=0.5;exitDx=0;exitDy=0;entryX=0;entryY=0.5;entryDx=0;entryDy=0;strokeColor=#FF0505;" parent="77e6c97f196da883-1" source="TCiXfk5xuBNNh0pUbAXc-59" target="77e6c97f196da883-11" edge="1">
          <mxGeometry relative="1" as="geometry">
            <Array as="points">
              <mxPoint x="335" y="465" />
              <mxPoint x="335" y="150" />
            </Array>
          </mxGeometry>
        </mxCell>
        <mxCell id="77e6c97f196da883-2" value="login 登出登入模組" style="swimlane;html=1;startSize=20;strokeColor=#D1EBFF;dashed=1;" parent="77e6c97f196da883-1" vertex="1">
          <mxGeometry y="20" width="350" height="760" as="geometry" />
        </mxCell>
        <mxCell id="t22Woqv_mMddBFfFVFnR-166" style="edgeStyle=orthogonalEdgeStyle;rounded=0;orthogonalLoop=1;jettySize=auto;html=1;exitX=1;exitY=0.5;exitDx=0;exitDy=0;entryX=0;entryY=0.5;entryDx=0;entryDy=0;strokeColor=#FF0000;" parent="77e6c97f196da883-2" source="t22Woqv_mMddBFfFVFnR-163" target="t22Woqv_mMddBFfFVFnR-155" edge="1">
          <mxGeometry relative="1" as="geometry" />
        </mxCell>
        <mxCell id="t22Woqv_mMddBFfFVFnR-163" value="" style="rounded=0;whiteSpace=wrap;html=1;fillColor=#0050ef;fontColor=#ffffff;strokeColor=#001DBC;" parent="77e6c97f196da883-2" vertex="1">
          <mxGeometry x="10" y="585" width="120" height="130" as="geometry" />
        </mxCell>
        <mxCell id="t22Woqv_mMddBFfFVFnR-155" value="" style="rounded=0;whiteSpace=wrap;html=1;fillColor=#0050ef;fontColor=#ffffff;strokeColor=#001DBC;" parent="77e6c97f196da883-2" vertex="1">
          <mxGeometry x="230" y="570" width="120" height="160" as="geometry" />
        </mxCell>
        <mxCell id="t22Woqv_mMddBFfFVFnR-154" value="" style="rounded=0;whiteSpace=wrap;html=1;fillColor=#0050ef;fontColor=#ffffff;strokeColor=#001DBC;" parent="77e6c97f196da883-2" vertex="1">
          <mxGeometry x="114.91" y="60" width="170" height="140" as="geometry" />
        </mxCell>
        <mxCell id="t22Woqv_mMddBFfFVFnR-165" style="edgeStyle=orthogonalEdgeStyle;rounded=0;orthogonalLoop=1;jettySize=auto;html=1;exitX=0.5;exitY=1;exitDx=0;exitDy=0;entryX=0.5;entryY=0;entryDx=0;entryDy=0;strokeColor=#FF0000;" parent="77e6c97f196da883-2" source="TCiXfk5xuBNNh0pUbAXc-168" target="t22Woqv_mMddBFfFVFnR-155" edge="1">
          <mxGeometry relative="1" as="geometry">
            <Array as="points">
              <mxPoint x="175" y="560" />
              <mxPoint x="290" y="560" />
            </Array>
          </mxGeometry>
        </mxCell>
        <mxCell id="wWnPF6C0VkS_MW27dLRY-1" style="edgeStyle=orthogonalEdgeStyle;rounded=0;orthogonalLoop=1;jettySize=auto;html=1;exitX=0.5;exitY=1;exitDx=0;exitDy=0;entryX=0.5;entryY=0;entryDx=0;entryDy=0;strokeColor=#FF0000;" edge="1" parent="77e6c97f196da883-2" source="TCiXfk5xuBNNh0pUbAXc-168" target="t22Woqv_mMddBFfFVFnR-163">
          <mxGeometry relative="1" as="geometry">
            <Array as="points">
              <mxPoint x="175" y="560" />
              <mxPoint x="70" y="560" />
            </Array>
          </mxGeometry>
        </mxCell>
        <mxCell id="TCiXfk5xuBNNh0pUbAXc-168" value="" style="rounded=0;whiteSpace=wrap;html=1;fillColor=#0050ef;fontColor=#ffffff;strokeColor=#001DBC;" parent="77e6c97f196da883-2" vertex="1">
          <mxGeometry x="90" y="400" width="170" height="140" as="geometry" />
        </mxCell>
        <mxCell id="77e6c97f196da883-8" value="&lt;font style=&quot;font-size: 14px;&quot;&gt;登入&lt;/font&gt;" style="rounded=1;whiteSpace=wrap;html=1;shadow=0;labelBackgroundColor=none;strokeWidth=1;fontFamily=Verdana;fontSize=8;align=center;" parent="77e6c97f196da883-2" vertex="1">
          <mxGeometry x="124.91" y="100" width="100" height="60" as="geometry" />
        </mxCell>
        <mxCell id="77e6c97f196da883-9" value="&lt;font style=&quot;font-size: 14px;&quot;&gt;暗碼比對模組&lt;/font&gt;" style="rounded=1;whiteSpace=wrap;html=1;shadow=0;labelBackgroundColor=none;strokeWidth=1;fontFamily=Verdana;fontSize=8;align=center;" parent="77e6c97f196da883-2" vertex="1">
          <mxGeometry x="125" y="210" width="100" height="60" as="geometry" />
        </mxCell>
        <mxCell id="TCiXfk5xuBNNh0pUbAXc-46" value="&lt;font style=&quot;font-size: 12px;&quot;&gt;/login&lt;/font&gt;" style="rounded=1;whiteSpace=wrap;html=1;shadow=0;labelBackgroundColor=none;strokeWidth=1;fontFamily=Verdana;fontSize=8;align=center;strokeColor=#00B3FF;" parent="77e6c97f196da883-2" vertex="1">
          <mxGeometry y="20" width="350" height="30" as="geometry" />
        </mxCell>
        <mxCell id="77e6c97f196da883-26" style="edgeStyle=orthogonalEdgeStyle;rounded=1;html=1;labelBackgroundColor=none;startArrow=none;startFill=0;startSize=5;endArrow=classicThin;endFill=1;endSize=5;jettySize=auto;orthogonalLoop=1;strokeWidth=1;fontFamily=Verdana;fontSize=8;exitX=0.5;exitY=1;exitDx=0;exitDy=0;entryX=0.5;entryY=0;entryDx=0;entryDy=0;strokeColor=#FF0505;" parent="77e6c97f196da883-2" source="77e6c97f196da883-8" target="77e6c97f196da883-9" edge="1">
          <mxGeometry relative="1" as="geometry" />
        </mxCell>
        <mxCell id="t22Woqv_mMddBFfFVFnR-167" style="edgeStyle=orthogonalEdgeStyle;rounded=0;orthogonalLoop=1;jettySize=auto;html=1;exitX=0;exitY=0.5;exitDx=0;exitDy=0;entryX=0.5;entryY=1;entryDx=0;entryDy=0;strokeColor=#FF0505;" parent="77e6c97f196da883-2" source="TCiXfk5xuBNNh0pUbAXc-49" target="t22Woqv_mMddBFfFVFnR-2" edge="1">
          <mxGeometry relative="1" as="geometry" />
        </mxCell>
        <mxCell id="TCiXfk5xuBNNh0pUbAXc-49" value="&lt;font style=&quot;font-size: 14px;&quot;&gt;x&lt;/font&gt;" style="rhombus;whiteSpace=wrap;html=1;rounded=0;shadow=0;labelBackgroundColor=none;strokeWidth=1;fontFamily=Verdana;fontSize=8;align=center;" parent="77e6c97f196da883-2" vertex="1">
          <mxGeometry x="96.91" y="220" width="35" height="40" as="geometry" />
        </mxCell>
        <mxCell id="TCiXfk5xuBNNh0pUbAXc-60" style="edgeStyle=orthogonalEdgeStyle;rounded=0;orthogonalLoop=1;jettySize=auto;html=1;exitX=0.5;exitY=1;exitDx=0;exitDy=0;entryX=0.5;entryY=0;entryDx=0;entryDy=0;strokeColor=#FF0000;" parent="77e6c97f196da883-2" source="TCiXfk5xuBNNh0pUbAXc-54" target="TCiXfk5xuBNNh0pUbAXc-59" edge="1">
          <mxGeometry relative="1" as="geometry" />
        </mxCell>
        <mxCell id="TCiXfk5xuBNNh0pUbAXc-54" value="&lt;font style=&quot;font-size: 14px;&quot;&gt;O&lt;/font&gt;" style="rhombus;whiteSpace=wrap;html=1;rounded=0;shadow=0;labelBackgroundColor=none;strokeWidth=1;fontFamily=Verdana;fontSize=8;align=center;" parent="77e6c97f196da883-2" vertex="1">
          <mxGeometry x="157.5" y="260" width="35" height="40" as="geometry" />
        </mxCell>
        <mxCell id="TCiXfk5xuBNNh0pUbAXc-59" value="&lt;font style=&quot;font-size: 14px;&quot;&gt;權限區分模組&lt;/font&gt;" style="rounded=1;whiteSpace=wrap;html=1;shadow=0;labelBackgroundColor=none;strokeWidth=1;fontFamily=Verdana;fontSize=8;align=center;" parent="77e6c97f196da883-2" vertex="1">
          <mxGeometry x="125" y="415" width="100" height="60" as="geometry" />
        </mxCell>
        <mxCell id="t22Woqv_mMddBFfFVFnR-4" value="&lt;div&gt;取得會話&lt;/div&gt;username&lt;div&gt;authorities&lt;br&gt;&lt;/div&gt;" style="rounded=0;whiteSpace=wrap;html=1;fillColor=#1ba1e2;fontColor=#ffffff;strokeColor=#006EAF;" parent="77e6c97f196da883-2" vertex="1">
          <mxGeometry x="225" y="60" width="60" height="60" as="geometry" />
        </mxCell>
        <mxCell id="t22Woqv_mMddBFfFVFnR-21" value="Login,vue" style="rounded=0;whiteSpace=wrap;html=1;fillColor=#dae8fc;strokeColor=#6c8ebf;" parent="77e6c97f196da883-2" vertex="1">
          <mxGeometry y="50" width="70" height="30" as="geometry" />
        </mxCell>
        <mxCell id="t22Woqv_mMddBFfFVFnR-22" value="Security,vue" style="rounded=0;whiteSpace=wrap;html=1;fillColor=#dae8fc;strokeColor=#6c8ebf;" parent="77e6c97f196da883-2" vertex="1">
          <mxGeometry x="70" y="50" width="70" height="30" as="geometry" />
        </mxCell>
        <mxCell id="t22Woqv_mMddBFfFVFnR-34" value="Layout,vue" style="rounded=0;whiteSpace=wrap;html=1;fillColor=#dae8fc;strokeColor=#6c8ebf;" parent="77e6c97f196da883-2" vertex="1">
          <mxGeometry x="140" y="50" width="70" height="30" as="geometry" />
        </mxCell>
        <mxCell id="t22Woqv_mMddBFfFVFnR-95" value="訂閱&lt;span style=&quot;font-family: Verdana;&quot;&gt;/topic/message&lt;/span&gt;" style="rounded=0;whiteSpace=wrap;html=1;fillColor=#dae8fc;strokeColor=#6c8ebf;" parent="77e6c97f196da883-2" vertex="1">
          <mxGeometry x="102.5" y="330" width="145" height="40" as="geometry" />
        </mxCell>
        <mxCell id="wWnPF6C0VkS_MW27dLRY-7" style="edgeStyle=orthogonalEdgeStyle;rounded=0;orthogonalLoop=1;jettySize=auto;html=1;exitX=0.5;exitY=0;exitDx=0;exitDy=0;entryX=0;entryY=0.5;entryDx=0;entryDy=0;strokeColor=#FF0303;" edge="1" parent="77e6c97f196da883-2" source="t22Woqv_mMddBFfFVFnR-2" target="77e6c97f196da883-8">
          <mxGeometry relative="1" as="geometry" />
        </mxCell>
        <mxCell id="t22Woqv_mMddBFfFVFnR-2" value="&lt;font style=&quot;font-size: 14px;&quot;&gt;忘記密碼模組&lt;/font&gt;" style="rounded=1;whiteSpace=wrap;html=1;shadow=0;labelBackgroundColor=none;strokeWidth=1;fontFamily=Verdana;fontSize=8;align=center;" parent="77e6c97f196da883-2" vertex="1">
          <mxGeometry x="10" y="170" width="100" height="50" as="geometry" />
        </mxCell>
        <mxCell id="t22Woqv_mMddBFfFVFnR-3" value="&lt;font style=&quot;font-size: 14px;&quot;&gt;安全問題模組&lt;/font&gt;" style="rounded=1;whiteSpace=wrap;html=1;shadow=0;labelBackgroundColor=none;strokeWidth=1;fontFamily=Verdana;fontSize=8;align=center;" parent="77e6c97f196da883-2" vertex="1">
          <mxGeometry x="17.5" y="595" width="100" height="50" as="geometry" />
        </mxCell>
        <mxCell id="t22Woqv_mMddBFfFVFnR-1" value="&lt;font style=&quot;font-size: 14px;&quot;&gt;修改個資模組&lt;/font&gt;" style="rounded=1;whiteSpace=wrap;html=1;shadow=0;labelBackgroundColor=none;strokeWidth=1;fontFamily=Verdana;fontSize=8;align=center;" parent="77e6c97f196da883-2" vertex="1">
          <mxGeometry x="17.5" y="655" width="100" height="50" as="geometry" />
        </mxCell>
        <mxCell id="TCiXfk5xuBNNh0pUbAXc-169" value="&lt;span style=&quot;font-size: 14px;&quot;&gt;登出&lt;/span&gt;" style="rounded=1;whiteSpace=wrap;html=1;shadow=0;labelBackgroundColor=none;strokeWidth=1;fontFamily=Verdana;fontSize=8;align=center;" parent="77e6c97f196da883-2" vertex="1">
          <mxGeometry x="240" y="580" width="100" height="50" as="geometry" />
        </mxCell>
        <mxCell id="t22Woqv_mMddBFfFVFnR-98" value="&lt;span style=&quot;font-size: 14px;&quot;&gt;ADMIN&lt;/span&gt;" style="rounded=1;whiteSpace=wrap;html=1;shadow=0;labelBackgroundColor=none;strokeWidth=1;fontFamily=Verdana;fontSize=8;align=center;fillColor=#6a00ff;fontColor=#ffffff;strokeColor=#3700CC;" parent="77e6c97f196da883-2" vertex="1">
          <mxGeometry x="176.91" y="490" width="80" height="40" as="geometry" />
        </mxCell>
        <mxCell id="t22Woqv_mMddBFfFVFnR-99" value="&lt;span style=&quot;font-size: 14px;&quot;&gt;NORMAL&lt;/span&gt;" style="rounded=1;whiteSpace=wrap;html=1;shadow=0;labelBackgroundColor=none;strokeWidth=1;fontFamily=Verdana;fontSize=8;align=center;" parent="77e6c97f196da883-2" vertex="1">
          <mxGeometry x="96.91" y="490" width="80" height="40" as="geometry" />
        </mxCell>
        <mxCell id="t22Woqv_mMddBFfFVFnR-152" value="stomp&lt;br&gt;連線" style="rounded=0;whiteSpace=wrap;html=1;fillColor=#1ba1e2;fontColor=#ffffff;strokeColor=#006EAF;" parent="77e6c97f196da883-2" vertex="1">
          <mxGeometry x="224.91" y="120" width="60" height="40" as="geometry" />
        </mxCell>
        <mxCell id="t22Woqv_mMddBFfFVFnR-153" value="ws&lt;br&gt;連線" style="rounded=0;whiteSpace=wrap;html=1;fillColor=#1ba1e2;fontColor=#ffffff;strokeColor=#006EAF;" parent="77e6c97f196da883-2" vertex="1">
          <mxGeometry x="224.90999999999997" y="160" width="60" height="40" as="geometry" />
        </mxCell>
        <mxCell id="t22Woqv_mMddBFfFVFnR-156" value="&lt;div&gt;刪除會話&lt;/div&gt;" style="rounded=0;whiteSpace=wrap;html=1;fillColor=#1ba1e2;fontColor=#ffffff;strokeColor=#006EAF;" parent="77e6c97f196da883-2" vertex="1">
          <mxGeometry x="230" y="640" width="120" height="50" as="geometry" />
        </mxCell>
        <mxCell id="t22Woqv_mMddBFfFVFnR-157" value="stomp&lt;br&gt;離線" style="rounded=0;whiteSpace=wrap;html=1;fillColor=#1ba1e2;fontColor=#ffffff;strokeColor=#006EAF;" parent="77e6c97f196da883-2" vertex="1">
          <mxGeometry x="229.99999999999994" y="690" width="60" height="40" as="geometry" />
        </mxCell>
        <mxCell id="wWnPF6C0VkS_MW27dLRY-8" style="edgeStyle=orthogonalEdgeStyle;rounded=0;orthogonalLoop=1;jettySize=auto;html=1;exitX=0;exitY=1;exitDx=0;exitDy=0;entryX=0;entryY=0.5;entryDx=0;entryDy=0;strokeColor=#FF0303;" edge="1" parent="77e6c97f196da883-2" source="t22Woqv_mMddBFfFVFnR-158" target="t22Woqv_mMddBFfFVFnR-154">
          <mxGeometry relative="1" as="geometry">
            <Array as="points">
              <mxPoint x="290" y="750" />
              <mxPoint x="-35" y="750" />
              <mxPoint x="-35" y="130" />
            </Array>
          </mxGeometry>
        </mxCell>
        <mxCell id="t22Woqv_mMddBFfFVFnR-158" value="ws&lt;br&gt;離線" style="rounded=0;whiteSpace=wrap;html=1;fillColor=#1ba1e2;fontColor=#ffffff;strokeColor=#006EAF;" parent="77e6c97f196da883-2" vertex="1">
          <mxGeometry x="289.99999999999994" y="690" width="60" height="40" as="geometry" />
        </mxCell>
        <mxCell id="wWnPF6C0VkS_MW27dLRY-11" style="edgeStyle=orthogonalEdgeStyle;rounded=0;orthogonalLoop=1;jettySize=auto;html=1;exitX=0.5;exitY=0;exitDx=0;exitDy=0;entryX=1;entryY=0.5;entryDx=0;entryDy=0;strokeColor=#FF0800;" edge="1" parent="77e6c97f196da883-2" source="4jOifUXECizoHzIBAuDK-1" target="t22Woqv_mMddBFfFVFnR-152">
          <mxGeometry relative="1" as="geometry">
            <Array as="points">
              <mxPoint x="295" y="140" />
            </Array>
          </mxGeometry>
        </mxCell>
        <mxCell id="4jOifUXECizoHzIBAuDK-1" value="&lt;font style=&quot;font-size: 14px;&quot;&gt;註冊模組&lt;/font&gt;" style="rounded=1;whiteSpace=wrap;html=1;shadow=0;labelBackgroundColor=none;strokeWidth=1;fontFamily=Verdana;fontSize=8;align=center;" parent="77e6c97f196da883-2" vertex="1">
          <mxGeometry x="260" y="210" width="70" height="50" as="geometry" />
        </mxCell>
        <mxCell id="77e6c97f196da883-3" value="join 加入退出群組模組" style="swimlane;html=1;startSize=20;strokeColor=#D1EBFF;dashed=1;" parent="77e6c97f196da883-1" vertex="1">
          <mxGeometry x="350" y="20" width="310" height="760" as="geometry" />
        </mxCell>
        <mxCell id="TCiXfk5xuBNNh0pUbAXc-103" style="edgeStyle=orthogonalEdgeStyle;rounded=0;orthogonalLoop=1;jettySize=auto;html=1;exitX=0.5;exitY=1;exitDx=0;exitDy=0;entryX=0.5;entryY=0;entryDx=0;entryDy=0;strokeColor=#FF0000;" parent="77e6c97f196da883-3" source="77e6c97f196da883-11" target="TCiXfk5xuBNNh0pUbAXc-62" edge="1">
          <mxGeometry relative="1" as="geometry" />
        </mxCell>
        <mxCell id="77e6c97f196da883-11" value="&lt;font style=&quot;font-size: 14px;&quot;&gt;加入群組&lt;br&gt;(group)&lt;/font&gt;" style="rounded=1;whiteSpace=wrap;html=1;shadow=0;labelBackgroundColor=none;strokeWidth=1;fontFamily=Verdana;fontSize=8;align=center;" parent="77e6c97f196da883-3" vertex="1">
          <mxGeometry x="100" y="100" width="100" height="60" as="geometry" />
        </mxCell>
        <mxCell id="TCiXfk5xuBNNh0pUbAXc-47" value="&lt;font style=&quot;font-size: 12px;&quot;&gt;/user-to-group/**、/user-to-room&lt;/font&gt;&lt;span style=&quot;font-size: 12px;&quot;&gt;/**&lt;/span&gt;" style="rounded=1;whiteSpace=wrap;html=1;shadow=0;labelBackgroundColor=none;strokeWidth=1;fontFamily=Verdana;fontSize=8;align=center;strokeColor=#00B3FF;" parent="77e6c97f196da883-3" vertex="1">
          <mxGeometry y="20" width="310" height="30" as="geometry" />
        </mxCell>
        <mxCell id="TCiXfk5xuBNNh0pUbAXc-62" value="&lt;font style=&quot;font-size: 14px;&quot;&gt;加入聊天室&lt;br&gt;(room)&lt;/font&gt;" style="rounded=1;whiteSpace=wrap;html=1;shadow=0;labelBackgroundColor=none;strokeWidth=1;fontFamily=Verdana;fontSize=8;align=center;" parent="77e6c97f196da883-3" vertex="1">
          <mxGeometry x="100" y="265" width="100" height="60" as="geometry" />
        </mxCell>
        <mxCell id="TCiXfk5xuBNNh0pUbAXc-161" value="&lt;div&gt;&lt;span style=&quot;font-size: 14px;&quot;&gt;INSERT&lt;/span&gt;&lt;/div&gt;" style="shape=process;whiteSpace=wrap;html=1;backgroundOutline=1;fillColor=#19A3FF;strokeColor=none;" parent="77e6c97f196da883-3" vertex="1">
          <mxGeometry x="105" y="160" width="90" height="40" as="geometry" />
        </mxCell>
        <mxCell id="TCiXfk5xuBNNh0pUbAXc-162" value="&lt;div&gt;&lt;span style=&quot;font-size: 14px;&quot;&gt;DELETE&lt;/span&gt;&lt;/div&gt;" style="shape=process;whiteSpace=wrap;html=1;backgroundOutline=1;fillColor=#FFA408;strokeColor=none;" parent="77e6c97f196da883-3" vertex="1">
          <mxGeometry x="105" y="200" width="90" height="40" as="geometry" />
        </mxCell>
        <mxCell id="TCiXfk5xuBNNh0pUbAXc-122" value="&lt;span style=&quot;font-size: 14px;&quot;&gt;INSERT&lt;/span&gt;" style="shape=process;whiteSpace=wrap;html=1;backgroundOutline=1;fillColor=#19A3FF;strokeColor=none;" parent="77e6c97f196da883-3" vertex="1">
          <mxGeometry y="325" width="90" height="40" as="geometry" />
        </mxCell>
        <mxCell id="TCiXfk5xuBNNh0pUbAXc-163" value="&lt;div&gt;&lt;span style=&quot;font-size: 14px;&quot;&gt;DELETE&lt;/span&gt;&lt;/div&gt;" style="shape=process;whiteSpace=wrap;html=1;backgroundOutline=1;fillColor=#FFA408;strokeColor=none;" parent="77e6c97f196da883-3" vertex="1">
          <mxGeometry y="365" width="90" height="40" as="geometry" />
        </mxCell>
        <mxCell id="caw4e2l-Zk4vS1gQuyCD-6" style="edgeStyle=none;curved=1;rounded=0;orthogonalLoop=1;jettySize=auto;html=1;entryX=1;entryY=0.5;entryDx=0;entryDy=0;fontSize=12;startSize=8;endSize=8;" parent="77e6c97f196da883-3" source="TCiXfk5xuBNNh0pUbAXc-161" target="TCiXfk5xuBNNh0pUbAXc-161" edge="1">
          <mxGeometry relative="1" as="geometry" />
        </mxCell>
        <mxCell id="caw4e2l-Zk4vS1gQuyCD-7" style="edgeStyle=none;curved=1;rounded=0;orthogonalLoop=1;jettySize=auto;html=1;exitX=1;exitY=0.5;exitDx=0;exitDy=0;fontSize=12;startSize=8;endSize=8;" parent="77e6c97f196da883-3" source="TCiXfk5xuBNNh0pUbAXc-162" target="TCiXfk5xuBNNh0pUbAXc-162" edge="1">
          <mxGeometry relative="1" as="geometry" />
        </mxCell>
        <mxCell id="caw4e2l-Zk4vS1gQuyCD-18" value="LEAVE" style="rounded=0;whiteSpace=wrap;html=1;fillColor=#f8cecc;strokeColor=#b85450;" parent="77e6c97f196da883-3" vertex="1">
          <mxGeometry x="210" y="365" width="100" height="40" as="geometry" />
        </mxCell>
        <mxCell id="t22Woqv_mMddBFfFVFnR-31" value="Room,vue" style="rounded=0;whiteSpace=wrap;html=1;fillColor=#dae8fc;strokeColor=#6c8ebf;" parent="77e6c97f196da883-3" vertex="1">
          <mxGeometry x="140" y="50" width="70" height="30" as="geometry" />
        </mxCell>
        <mxCell id="t22Woqv_mMddBFfFVFnR-30" value="Group,vue" style="rounded=0;whiteSpace=wrap;html=1;fillColor=#dae8fc;strokeColor=#6c8ebf;" parent="77e6c97f196da883-3" vertex="1">
          <mxGeometry x="70" y="50" width="70" height="30" as="geometry" />
        </mxCell>
        <mxCell id="t22Woqv_mMddBFfFVFnR-92" value="JOIN" style="rounded=0;whiteSpace=wrap;html=1;fillColor=#f8cecc;strokeColor=#b85450;" parent="77e6c97f196da883-3" vertex="1">
          <mxGeometry x="210" y="325" width="100" height="40" as="geometry" />
        </mxCell>
        <mxCell id="t22Woqv_mMddBFfFVFnR-93" value="訂閱&lt;span style=&quot;font-family: Verdana;&quot;&gt;{roomId}&lt;/span&gt;" style="rounded=0;whiteSpace=wrap;html=1;fillColor=#dae8fc;strokeColor=#6c8ebf;" parent="77e6c97f196da883-3" vertex="1">
          <mxGeometry x="90" y="325" width="120" height="40" as="geometry" />
        </mxCell>
        <mxCell id="t22Woqv_mMddBFfFVFnR-94" value="取消訂閱&lt;span style=&quot;font-family: Verdana;&quot;&gt;{roomId}&lt;/span&gt;" style="rounded=0;whiteSpace=wrap;html=1;fillColor=#ffe6cc;strokeColor=#d79b00;" parent="77e6c97f196da883-3" vertex="1">
          <mxGeometry x="90" y="365" width="120" height="40" as="geometry" />
        </mxCell>
        <mxCell id="t22Woqv_mMddBFfFVFnR-23" value="Index,vue" style="rounded=0;whiteSpace=wrap;html=1;fillColor=#dae8fc;strokeColor=#6c8ebf;" parent="77e6c97f196da883-3" vertex="1">
          <mxGeometry y="50" width="70" height="30" as="geometry" />
        </mxCell>
        <mxCell id="77e6c97f196da883-4" value="message 訊息貼文模組" style="swimlane;html=1;startSize=20;strokeColor=#D1EBFF;dashed=1;" parent="77e6c97f196da883-1" vertex="1">
          <mxGeometry x="660" y="20" width="310" height="760" as="geometry" />
        </mxCell>
        <mxCell id="TCiXfk5xuBNNh0pUbAXc-48" value="&lt;span style=&quot;font-size: 12px;&quot;&gt;/topic/message/{roomId}&lt;/span&gt;" style="rounded=1;whiteSpace=wrap;html=1;shadow=0;labelBackgroundColor=none;strokeWidth=1;fontFamily=Verdana;fontSize=8;align=center;strokeColor=#00B3FF;" parent="77e6c97f196da883-4" vertex="1">
          <mxGeometry y="20" width="310" height="30" as="geometry" />
        </mxCell>
        <mxCell id="TCiXfk5xuBNNh0pUbAXc-120" value="&lt;span style=&quot;font-size: 14px;&quot;&gt;INSERT&lt;/span&gt;" style="shape=process;whiteSpace=wrap;html=1;backgroundOutline=1;fillColor=#19A3FF;strokeColor=none;" parent="77e6c97f196da883-4" vertex="1">
          <mxGeometry y="500" width="210" height="40" as="geometry" />
        </mxCell>
        <mxCell id="t22Woqv_mMddBFfFVFnR-27" value="&lt;span style=&quot;font-size: 14px;&quot;&gt;訊息輸出模組&lt;br&gt;[ADMIN]&lt;/span&gt;" style="rounded=1;whiteSpace=wrap;html=1;shadow=0;labelBackgroundColor=none;strokeWidth=1;fontFamily=Verdana;fontSize=8;align=center;fillColor=#6a00ff;fontColor=#ffffff;strokeColor=#3700CC;" parent="77e6c97f196da883-4" vertex="1">
          <mxGeometry x="105" y="190" width="100" height="60" as="geometry" />
        </mxCell>
        <mxCell id="t22Woqv_mMddBFfFVFnR-33" value="Room,vue" style="rounded=0;whiteSpace=wrap;html=1;fillColor=#dae8fc;strokeColor=#6c8ebf;" parent="77e6c97f196da883-4" vertex="1">
          <mxGeometry y="50" width="70" height="30" as="geometry" />
        </mxCell>
        <mxCell id="t22Woqv_mMddBFfFVFnR-96" value="TEXT" style="rounded=0;whiteSpace=wrap;html=1;fillColor=#f8cecc;strokeColor=#b85450;" parent="77e6c97f196da883-4" vertex="1">
          <mxGeometry x="210" y="500" width="100" height="40" as="geometry" />
        </mxCell>
        <mxCell id="TCiXfk5xuBNNh0pUbAXc-105" value="&lt;span style=&quot;font-size: 14px;&quot;&gt;發訊息&lt;/span&gt;" style="rounded=1;whiteSpace=wrap;html=1;shadow=0;labelBackgroundColor=none;strokeWidth=1;fontFamily=Verdana;fontSize=8;align=center;" parent="77e6c97f196da883-4" vertex="1">
          <mxGeometry x="105" y="440" width="100" height="60" as="geometry" />
        </mxCell>
        <mxCell id="t22Woqv_mMddBFfFVFnR-169" style="edgeStyle=orthogonalEdgeStyle;rounded=0;orthogonalLoop=1;jettySize=auto;html=1;exitX=0.5;exitY=1;exitDx=0;exitDy=0;entryX=1;entryY=0.25;entryDx=0;entryDy=0;strokeColor=#FF0000;" parent="77e6c97f196da883-1" source="t22Woqv_mMddBFfFVFnR-94" target="t22Woqv_mMddBFfFVFnR-156" edge="1">
          <mxGeometry relative="1" as="geometry" />
        </mxCell>
        <mxCell id="t22Woqv_mMddBFfFVFnR-171" style="edgeStyle=orthogonalEdgeStyle;rounded=0;orthogonalLoop=1;jettySize=auto;html=1;exitX=1;exitY=0.5;exitDx=0;exitDy=0;entryX=0.5;entryY=0;entryDx=0;entryDy=0;strokeColor=#FF0000;" parent="77e6c97f196da883-1" source="TCiXfk5xuBNNh0pUbAXc-62" target="TCiXfk5xuBNNh0pUbAXc-105" edge="1">
          <mxGeometry relative="1" as="geometry" />
        </mxCell>
        <mxCell id="t22Woqv_mMddBFfFVFnR-172" style="edgeStyle=orthogonalEdgeStyle;rounded=0;orthogonalLoop=1;jettySize=auto;html=1;exitX=1;exitY=0.5;exitDx=0;exitDy=0;entryX=0.5;entryY=1;entryDx=0;entryDy=0;strokeColor=#FF0000;" parent="77e6c97f196da883-1" source="TCiXfk5xuBNNh0pUbAXc-62" target="t22Woqv_mMddBFfFVFnR-27" edge="1">
          <mxGeometry relative="1" as="geometry" />
        </mxCell>
        <mxCell id="t22Woqv_mMddBFfFVFnR-173" style="edgeStyle=orthogonalEdgeStyle;rounded=0;orthogonalLoop=1;jettySize=auto;html=1;exitX=0.75;exitY=1;exitDx=0;exitDy=0;entryX=1;entryY=0.25;entryDx=0;entryDy=0;strokeColor=#FF0000;" parent="77e6c97f196da883-1" source="TCiXfk5xuBNNh0pUbAXc-120" target="t22Woqv_mMddBFfFVFnR-156" edge="1">
          <mxGeometry relative="1" as="geometry" />
        </mxCell>
      </root>
    </mxGraphModel>
  </diagram>
</mxfile>
